{"title":"Carlos Saura - Peppermint.Frappe.1967.DVDRip.x264.AC3","uid":11168211,"size":1563327213,"categoryP":"video","categoryS":"movies","magnet":"?xt=urn:btih:8fb948fd70567321fdc950c4f722af8417b313ec&amp;dn=Carlos+Saura+-+Peppermint.Frappe.1967.DVDRip.x264.AC3&amp;tr=udp%3A%2F%2Ftracker.openbittorrent.com%3A80&amp;tr=udp%3A%2F%2Fopen.demonii.com%3A1337&amp;tr=udp%3A%2F%2Ftracker.coppersurfer.tk%3A6969&amp;tr=udp%3A%2F%2Fexodus.desync.com%3A6969","seeders":6,"leechers":0,"uploader":"rpessoa","files":1,"time":1412660175,"description":"Julian, a middle-aged single doctor, meets his childhood friend Pablo again. The latter is back from Africa and has just married a beautiful young blonde, Elena. Julian falls in love with her and tries to seduce her, but she mockingly pushes him away from her. He then finds that Ana, his nurse, bears a troubling resemblance to Elena. He decides to gradually transform Ana into Elena... Written by Guy Bellinger\n &lt;a href=&quot;\nhttp://www.imdb.com/title/tt0062113/&quot; rel=&quot;nofollow&quot; target=&quot;_NEW&quot;&gt;\nhttp://www.imdb.com/title/tt0062113/&lt;/a&gt;\n\nGeneral \nUnique ID : 218010579987922396273545180970723553956 (0xA4034F77A1EA7C0898421859456BB2A4) \nComplete name : Peppermint.Frappe.1967.DVDRip.x264.AC3.mkv \nFormat : Matroska \nFormat version : Version 4 / Version 2 \nFile size : 1.46 GiB \nDuration : 1h 29mn \nOverall bit rate : 2 319 Kbps \nEncoded date : UTC 2014-09-28 16:52:29 \nWriting application : mkvmerge v6.3.0 ('You can't stop me!') built on Jun 28 2013 20:09:41 \nWriting library : libebml v1.3.0 + libmatroska v1.4.0 \n\nVideo \nID : 1 \nFormat : AVC \nFormat/Info : Advanced Video Codec \nFormat profile : &lt;a class=&quot;__cf_email__&quot; href=&quot;/cdn-cgi/l/email-protection&quot; data-cfemail=&quot;652d0c020d2529564b54&quot;&gt;[email&amp;#160;protected]&lt;/a&gt;&lt;script cf-hash='f9e31' type=&quot;text/javascript&quot;&gt;\n/* &lt;![CDATA[ */!function(){try{var t=&quot;currentScript&quot;in document?document.currentScript:function(){for(var t=document.getElementsByTagName(&quot;script&quot;),e=t.length;e--;)if(t[e].getAttribute(&quot;cf-hash&quot;))return t[e]}();if(t&amp;&amp;t.previousSibling){var e,r,n,i,c=t.previousSibling,a=c.getAttribute(&quot;data-cfemail&quot;);if(a){for(e=&quot;&quot;,r=parseInt(a.substr(0,2),16),n=2;a.length-n;n+=2)i=parseInt(a.substr(n,2),16)^r,e+=String.fromCharCode(i);e=document.createTextNode(e),c.parentNode.replaceChild(e,c)}}}catch(u){}}();/* ]]&gt; */&lt;/script&gt; \nFormat settings, CABAC : Yes \nFormat settings, ReFrames : 11 frames \nCodec ID : V_MPEG4/ISO/AVC \nDuration : 1h 29mn \nBit rate : 2 125 Kbps \nWidth : 716 pixels \nHeight : 572 pixels \nDisplay aspect ratio : 16:9 \nFrame rate mode : Constant \nFrame rate : 25.000 fps \nColor space : YUV \nChroma subsampling : 4:2:0 \nBit depth : 8 bits \nScan type : Progressive \nBits/(Pixel*Frame) : 0.208 \nStream size : 1.31 GiB (90%) \nWriting library : x264 core 142 r2453 ea0ca51 \nEncoding settings : cabac=1 / ref=11 / deblock=1:-3:-3 / analyse=0x3:0x113 / me=umh / subme=11 / psy=1 / psy_rd=0.95:0.05 / mixed_ref=1 / me_range=32 / chroma_me=1 / trellis=2 / 8x8dct=1 / cqm=0 / deadzone=21,11 / fast_pskip=0 / chroma_qp_offset=-3 / threads=12 / lookahead_threads=2 / sliced_threads=0 / nr=0 / decimate=1 / interlaced=0 / bluray_compat=0 / constrained_intra=0 / bframes=9 / b_pyramid=2 / b_adapt=2 / b_bias=0 / direct=3 / weightb=1 / open_gop=0 / weightp=2 / keyint=250 / keyint_min=25 / scenecut=40 / intra_refresh=0 / rc_lookahead=60 / rc=2pass / mbtree=1 / bitrate=2125 / ratetol=1.0 / qcomp=0.65 / qpmin=0 / qpmax=69 / qpstep=4 / cplxblur=20.0 / qblur=0.5 / ip_ratio=1.40 / aq=2:0.85 \nLanguage : English \nDefault : Yes \nForced : No \n\nAudio \nID : 2 \nFormat : AC-3 \nFormat/Info : Audio Coding 3 \nMode extension : CM (complete main) \nFormat settings, Endianness : Big \nCodec ID : A_AC3 \nDuration : 1h 29mn \nBit rate mode : Constant \nBit rate : 192 Kbps \nChannel(s) : 2 channels \nChannel positions : Front: L R \nSampling rate : 48.0 KHz \nBit depth : 16 bits \nCompression mode : Lossy \nStream size : 123 MiB (8%) \nDefault : Yes \nForced : No \n\nText #1 \nID : 3 \nFormat : UTF-8 \nCodec ID : S_TEXT/UTF8 \nCodec ID/Info : UTF-8 Plain Text \nLanguage : English \nDefault : Yes \nForced : No \n\nText #2 \nID : 4 \nFormat : UTF-8 \nCodec ID : S_TEXT/UTF8 \nCodec ID/Info : UTF-8 Plain Text \nLanguage : Portuguese \nDefault : No \nForced : No \n\nMenu \n00:00:00.000 : en:Chapter 1 \n00:02:12.000 : en:Chapter 2 \n00:10:30.880 : en:Chapter 3 \n00:18:25.960 : en:Chapter 4 \n00:22:11.480 : en:Chapter 5 \n00:27:48.680 : en:Chapter 6 \n00:32:43.600 : en:Chapter 7 \n00:36:07.360 : en:Chapter 8 \n00:42:43.280 : en:Chapter 9 \n00:45:55.720 : en:Chapter 10 \n00:50:41.560 : en:Chapter 11 \n00:56:28.000 : en:Chapter 12 \n01:04:57.360 : en:Chapter 13 \n01:11:22.400 : en:Chapter 14 \n01:21:23.080 : en:Chapter 15 \n01:25:14.960 : en:Chapter 16 \n\nMy rip.","torrent":{"xt":"urn:btih:8fb948fd70567321fdc950c4f722af8417b313ec","amp;dn":"Carlos+Saura+-+Peppermint.Frappe.1967.DVDRip.x264.AC3","amp;tr":["udp%3A%2F%2Ftracker.openbittorrent.com%3A80","udp%3A%2F%2Fopen.demonii.com%3A1337","udp%3A%2F%2Ftracker.coppersurfer.tk%3A6969","udp%3A%2F%2Fexodus.desync.com%3A6969"],"infoHash":"8fb948fd70567321fdc950c4f722af8417b313ec","infoHashBuffer":{"type":"Buffer","data":[143,185,72,253,112,86,115,33,253,201,80,196,247,34,175,132,23,179,19,236]},"announce":[],"urlList":[]}}